<?xml version="1.0" standalone="no"?>
<!DOCTYPE svg PUBLIC "-//W3C//DTD SVG 20010904//EN"
 "http://www.w3.org/TR/2001/REC-SVG-20010904/DTD/svg10.dtd">
<svg version="1.0" xmlns="http://www.w3.org/2000/svg"
 width="512.000000pt" height="512.000000pt" viewBox="0 0 512.000000 512.000000"
 preserveAspectRatio="xMidYMid meet">
<metadata>
Created by potrace 1.14, written by Peter Selinger 2001-2017
</metadata>
<g transform="translate(0.000000,512.000000) scale(0.100000,-0.100000)"
fill="#000000" stroke="none">
<path d="M395 5106 c-97 -23 -164 -63 -241 -140 -80 -80 -122 -154 -143 -254
-16 -75 -16 -4229 0 -4304 21 -100 63 -174 143 -254 80 -80 154 -122 254 -143
75 -16 4229 -16 4304 0 100 21 174 63 254 143 80 80 122 154 143 254 16 75 16
4229 0 4304 -21 100 -63 174 -143 254 -80 80 -154 122 -254 143 -79 17 -4248
14 -4317 -3z m1715 -1966 c245 -520 450 -944 456 -943 5 1 219 426 476 945
l468 943 365 3 365 2 0 -100 0 -100 -165 0 -165 0 0 -1335 0 -1335 165 0 165
0 0 -100 0 -100 -520 0 -520 0 0 100 0 100 165 0 165 0 0 1215 c0 668 -3 1215
-8 1215 -4 0 -47 -89 -96 -197 -131 -289 -946 -1917 -955 -1907 -11 13 -781
1631 -891 1874 -52 113 -100 212 -107 220 -11 12 -13 -194 -13 -1203 l0 -1217
165 0 165 0 0 -100 0 -100 -450 0 -450 0 0 100 0 100 163 2 162 3 0 1330 0
1330 -162 3 -163 2 0 100 0 100 387 -2 387 -3 446 -945z"/>
</g>
</svg>
